#!OML:ASF E:\Mandelcareful walks\Project 1\Capture day 1\Session 1\Subject1.ASF
:FULLY-SPECIFIED
:DEGREES
556
root 10.3003 16.7362 0.711697 194.118 -77.4803 -185.389
lowerback 16.3775 -0.834624 -2.99658
upperback 3.27579 -1.77193 0.434701
thorax -5.5741 -0.898517 2.53541
lowerneck -22.941 -11.8662 -14.3513
upperneck 20.0776 -13.9187 8.78776
head 12.0338 -6.33922 3.05234
rclavicle 7.78242e-014 5.66536e-015
rhumerus -23.3851 4.6495 -84.5507
rradius 38.4585
rwrist -15.5488
rhand -8.06408 -22.4338
rfingers 7.12502
rthumb 17.8472 -51.6349
lclavicle 7.78242e-014 5.66536e-015
lhumerus -32.4549 -13.7425 84.5656
lradius 47.9347
lwrist 24.8045
lhand -25.0095 -12.3808
lfingers 7.12502
lthumb 1.50241 17.5936
rfemur -5.02711 -6.39789 4.61341
rtibia 1.39149e-014
rfoot -1.97924 -27.9433
rtoes 0.213647
lfemur -20.9442 11.4896 -9.66999
ltibia 28.362
lfoot -11.8625 17.2459
ltoes -3.91501
557
root 10.3328 16.7386 0.692269 194.344 -77.4683 -185.491
lowerback 16.5155 -0.929548 -2.97185
upperback 3.3602 -1.90193 0.432683
thorax -5.55152 -0.966468 2.54866
lowerneck -23.2163 -11.8145 -14.154
upperneck 20.1019 -13.8482 8.70646
head 12.0614 -6.29291 2.99731
rclavicle -1.59773e-014 4.37326e-015
rhumerus -23.3181 4.64935 -84.4439
rradius 38.6949
rwrist -15.6372
rhand -7.90013 -22.6476
rfingers 7.12502
rthumb 18.0049 -51.8342
lclavicle -1.59773e-014 4.37326e-015
lhumerus -32.411 -14.0256 84.7996
lradius 48.5603
lwrist 24.4969
lhand -24.3918 -12.8034
lfingers 7.12502
lthumb 2.09895 17.166
rfemur -5.2972 -6.53961 4.68846
rtibia -4.37326e-015
rfoot -1.828 -27.8573
rtoes -0.272805
lfemur -21.0236 11.3839 -9.62028
ltibia 28.1085
lfoot -11.7869 17.3314
ltoes -3.79628
558
root 10.3732 16.7382 0.669168 194.04 -77.3465 -185.036
lowerback 16.8377 -0.948846 -2.96991
upperback 3.37526 -1.93807 0.483965
thorax -5.70559 -0.98261 2.62012
lowerneck -22.9798 -11.5936 -14.0285
upperneck 20.0085 -13.5922 8.64727
head 11.9349 -6.18675 3.02003
rclavicle -4.52732e-014 1.0138e-014
rhumerus -23.239 4.61265 -84.3375
rradius 38.6511
rwrist -15.8461
rhand -7.37539 -22.744
rfingers 7.12502
rthumb 18.5098 -51.8833
lclavicle -4.52732e-014 1.0138e-014
lhumerus -32.3555 -14.6259 85.1307
lradius 48.9777
lwrist 24.2811
lhand -24.0998 -13.2902
lfingers 7.12502
lthumb 2.38095 16.6763
rfemur -5.6339 -6.54511 4.91587
rtibia 2.3059e-014
rfoot -1.98409 -27.6908
rtoes -0.00363136
lfemur -21.125 11.4889 -9.44096
ltibia 27.8276
lfoot -11.6313 17.4278
ltoes -3.77693
559
root 10.4228 16.7407 0.645504 194.049 -77.1754 -184.888
lowerback 17.5482 -0.908118 -3.09229
upperback 3.10542 -1.9204 0.562179
thorax -6.37302 -0.949761 2.79927
lowerneck -23.3123 -11.5704 -13.9914
upperneck 20.6034 -13.5122 8.38657
head 12.1904 -6.16751 2.92042
rclavicle -1.95057e-014 2.5842e-014
rhumerus -23.5379 4.50151 -84.1863
rradius 38.6166
rwrist -15.8022
rhand -7.4115 -22.4473
rfingers 7.12502
rthumb 18.475 -51.5899
lclavicle -1.95057e-014 2.5842e-014
lhumerus -32.7297 -15.341 85.6717
lradius 49.3451
lwrist 24.0715
lhand -23.9492 -13.9456
lfingers 7.12502
lthumb 2.52646 16.0192
rfemur -6.03516 -6.51886 5.08869
rtibia 2.96189e-014
rfoot -1.94314 -27.5204
rtoes 0.417388
lfemur -21.2943 11.5124 -9.32262
ltibia 27.5665
lfoot -11.4088 17.659
ltoes -3.73685
560
root 10.4479 16.7426 0.629507 194.136 -77.1773 -184.837
lowerback 17.5458 -0.962062 -2.91349
upperback 3.16172 -1.96014 0.565867
thorax -6.3145 -0.97587 2.70919
lowerneck -23.4415 -11.3984 -13.8185
upperneck 20.8806 -13.2296 8.00156
head 12.2407 -6.07231 2.80444
rclavicle 2.9271e-014 -2.1916e-014
rhumerus -23.5213 4.24833 -84.0172
rradius 38.7789
rwrist -15.5957
rhand -7.90633 -22.2645
rfingers 7.12502
rthumb 17.999 -51.4517
lclavicle 2.9271e-014 -2.1916e-014
lhumerus -32.6483 -15.9866 86.024
lradius 49.6812
lwrist 23.7823
lhand -23.3545 -13.9491
lfingers 7.12502
lthumb 3.10074 16.0081
rfemur -6.26547 -6.66938 5.18019
rtibia -5.1684e-015
rfoot -1.57362 -27.3682
rtoes -0.143386
lfemur -21.3684 11.429 -9.26714
ltibia 27.3368
lfoot -11.2357 17.7673
ltoes -3.69272
561
root 10.4733 16.7406 0.614142 194.091 -77.1927 -184.669
lowerback 17.6481 -1.0413 -2.82565
upperback 3.18132 -2.04751 0.640708
thorax -6.34325 -1.01994 2.76195
lowerneck -23.4416 -10.9968 -13.6232
upperneck 21.1663 -12.6257 7.52675
head 12.226 -5.85119 2.72253
rclavicle -1.2424e-016 4.12478e-015
rhumerus -23.6134 4.36958 -83.8078
rradius 39.0446
rwrist -15.5298
rhand -7.96922 -22.3528
rfingers 7.12502
rthumb 17.9385 -51.5455
lclavicle -1.2424e-016 4.12478e-015
lhumerus -32.654 -16.2313 86.3602
lradius 50.1248
lwrist 23.4016
lhand -22.5145 -13.4393
lfingers 7.12502
lthumb 3.91195 16.5045
rfemur -6.46653 -6.82029 5.30112
rtibia 1.39149e-014
rfoot -1.50509 -27.2433
rtoes -0.0437583
lfemur -21.3995 11.2887 -9.17471
ltibia 27.102
lfoot -11.1465 17.9005
ltoes -3.50838
562
root 10.4966 16.7408 0.596553 194.081 -77.2046 -184.561
lowerback 17.7694 -1.12359 -2.73204
upperback 3.25235 -2.14211 0.696154
thorax -6.32752 -1.07074 2.79207
lowerneck -24.2236 -10.5693 -13.414
upperneck 21.5912 -11.9685 7.383
head 12.4347 -5.54026 2.74662
rclavicle 3.926e-015 -2.68359e-015
rhumerus -23.6116 4.53758 -83.6487
rradius 39.2024
rwrist -15.4654
rhand -7.7018 -22.1494
rfingers 7.12502
rthumb 18.1957 -51.3183
lclavicle 3.926e-015 -2.68359e-015
lhumerus -32.6027 -16.2552 86.5912
lradius 50.637
lwrist 22.8699
lhand -22.0008 -13.3456
lfingers 7.12502
lthumb 4.40797 16.5885
rfemur -6.64956 -6.96177 5.42878
rtibia -1.39149e-015
rfoot -1.52801 -27.178
rtoes -0.0621995
lfemur -21.3983 11.1217 -9.08079
ltibia 26.86
lfoot -11.0742 18.0676
ltoes -3.5384
563
root 10.5248 16.7425 0.576517 193.779 -77.221 -184.19
lowerback 18.014 -1.20061 -2.59741
upperback 3.3229 -2.22786 0.731555
thorax -6.38178 -1.11713 2.78059
lowerneck -25.2504 -9.67339 -12.4087
upperneck 22.4749 -10.678 6.27962
head 12.6848 -5.01034 2.40683
rclavicle -6.18717e-015 -2.83268e-015
rhumerus -23.5013 4.60934 -83.6453
rradius 39.2156
rwrist -15.4936
rhand -7.73157 -22.1398
rfingers 7.12502
rthumb 18.1671 -51.3114
lclavicle -6.18717e-015 -2.83268e-015
lhumerus -32.4441 -16.5068 86.6742
lradius 51.0393
lwrist 22.3963
lhand -21.7447 -13.2165
lfingers 7.12502
lthumb 4.65532 16.7123
rfemur -8.08307 -7.06442 5.68183
rtibia 2.4404
rfoot -2.7099 -26.836
rtoes -0.375239
lfemur -21.4168 10.9612 -8.88232
ltibia 26.5848
lfoot -10.8366 18.2966
ltoes -3.57436
564
root 10.5591 16.741 0.554159 193.687 -77.206 -184.089
lowerback 18.3893 -1.17083 -2.43821
upperback 3.27415 -2.16949 0.730514
thorax -6.64624 -1.08618 2.69159
lowerneck -25.8894 -8.58135 -11.5046
upperneck 23.3294 -9.14697 5.22507
head 12.8728 -4.39898 2.15546
rclavicle -9.03228e-014 -6.80837e-015
rhumerus -23.6994 4.40662 -83.5717
rradius 39.1546
rwrist -15.6194
rhand -7.66192 -22.5362
rfingers 7.12502
rthumb 18.2341 -51.7016
lclavicle -9.03228e-014 -6.80837e-015
lhumerus -32.4229 -17.2882 86.9188
lradius 51.234
lwrist 22.1369
lhand -21.7806 -13.1749
lfingers 7.12502
lthumb 4.62061 16.7547
rfemur -9.60119 -7.11983 5.88112
rtibia 5.05754
rfoot -3.76034 -26.4523
rtoes -0.920085
lfemur -21.3885 10.8482 -8.71304
ltibia 26.2898
lfoot -10.6463 18.4568
ltoes -3.2119
